# xmcd
#
# Track frame offsets:
#	150
#	19090
#	47901
#	59276
#	75684
#	99050
#	124173
#	139702
#	157726
#	171684
#	183525
#	202641
#	219412
#	230472
#	258134
#	272134
#	291174
#
# Disc length: 4042 seconds
#
# Revision: 1
# Processed by: cddbd v1.5.2PL0 Copyright (c) Steve Scherf et al.
# Submitted via: audiograbber 1.83.01
#
DISCID=e80fc811
DTITLE=Amarillo - All That's Close To Home
DYEAR=1900
DGENRE=Country
TTITLE0=Wide Open Spaces
TTITLE1=Missing You
TTITLE2=High Card Ranch
TTITLE3=Dream On Little Children
TTITLE4=Play The Cards You Hold
TTITLE5=St James Infirmary
TTITLE6=Someday
TTITLE7=Speak Of The Devil
TTITLE8=Piemas Elegantes
TTITLE9=Big Son Of A Gun
TTITLE10=Commanche Free
TTITLE11=Big Truck Comin'
TTITLE12=Fire Is Gonna Fly
TTITLE13=Route66
TTITLE14=Through The Blues
TTITLE15=We Fly
TTITLE16=Amarillo Morning
EXTD=
EXTT0=
EXTT1=
EXTT2=
EXTT3=
EXTT4=
EXTT5=
EXTT6=
EXTT7=
EXTT8=
EXTT9=
EXTT10=
EXTT11=
EXTT12=
EXTT13=
EXTT14=
EXTT15=
EXTT16=
PLAYORDER=
